# MagicaVoxel @ Ephtracy

# material
mtllib auto2.mtl
usemtl palette

# normals
vn -1 0 0
vn 1 0 0
vn 0 0 1
vn 0 0 -1
vn 0 -1 0
vn 0 1 0

# texcoords
vt 0.0175781 0.5
vt 0.634766 0.5
vt 0.841797 0.5
vt 0.958984 0.5
vt 0.970703 0.5
vt 0.982422 0.5
vt 0.994141 0.5

# verts
v -6 0 6.5
v -6 0 3.5
v -6 0 -2.5
v -6 0 -5.5
v -6 1 5.5
v -6 1 4.5
v -6 1 -3.5
v -6 1 -4.5
v -6 2 5.5
v -6 2 4.5
v -6 2 -3.5
v -6 2 -4.5
v -6 3 6.5
v -6 3 3.5
v -6 3 2.5
v -6 3 0.5
v -6 3 -2.5
v -6 3 -5.5
v -6 4 2.5
v -6 4 0.5
v -5 1 8.5
v -5 1 6.5
v -5 1 3.5
v -5 1 -2.5
v -5 1 -5.5
v -5 1 -7.5
v -5 2 8.5
v -5 2 6.5
v -5 2 3.5
v -5 2 -2.5
v -5 2 -5.5
v -5 2 -7.5
v -5 3 6.5
v -5 3 3.5
v -5 3 2.5
v -5 3 0.5
v -5 3 -2.5
v -5 3 -5.5
v -5 4 8.5
v -5 4 3.5
v -5 4 2.5
v -5 4 0.5
v -5 4 -2.5
v -5 4 -3.5
v -5 4 -5.5
v -5 4 -6.5
v -5 4 -7.5
v -5 7 2.5
v -5 7 -2.5
v -5 7 -3.5
v -5 7 -5.5
v -5 8 3.5
v -5 8 -6.5
v -3 1 -7.5
v -3 1 -8.5
v -3 2 -7.5
v -3 2 -8.5
v 5 0 6.5
v 5 0 3.5
v 5 0 -2.5
v 5 0 -5.5
v 5 1 6.5
v 5 1 3.5
v 5 1 -2.5
v 5 1 -5.5
v -5 0 6.5
v -5 0 3.5
v -5 0 -2.5
v -5 0 -5.5
v -5 1 6.5
v -5 1 3.5
v -5 1 -2.5
v -5 1 -5.5
v -2 1 -7.5
v -2 1 -8.5
v -2 2 -7.5
v -2 2 -8.5
v 5 1 8.5
v 5 1 6.5
v 5 1 3.5
v 5 1 -2.5
v 5 1 -5.5
v 5 1 -7.5
v 5 2 8.5
v 5 2 6.5
v 5 2 3.5
v 5 2 -2.5
v 5 2 -5.5
v 5 2 -7.5
v 5 3 6.5
v 5 3 3.5
v 5 3 2.5
v 5 3 0.5
v 5 3 -2.5
v 5 3 -5.5
v 5 4 8.5
v 5 4 3.5
v 5 4 2.5
v 5 4 0.5
v 5 4 -2.5
v 5 4 -3.5
v 5 4 -5.5
v 5 4 -6.5
v 5 4 -7.5
v 5 7 2.5
v 5 7 -2.5
v 5 7 -3.5
v 5 7 -5.5
v 5 8 3.5
v 5 8 -6.5
v 6 0 6.5
v 6 0 3.5
v 6 0 -2.5
v 6 0 -5.5
v 6 1 5.5
v 6 1 4.5
v 6 1 -3.5
v 6 1 -4.5
v 6 2 5.5
v 6 2 4.5
v 6 2 -3.5
v 6 2 -4.5
v 6 3 6.5
v 6 3 3.5
v 6 3 2.5
v 6 3 0.5
v 6 3 -2.5
v 6 3 -5.5
v 6 4 2.5
v 6 4 0.5
v -5 1 8.5
v -5 2 8.5
v -5 4 8.5
v -4 2 8.5
v -4 3 8.5
v -3 2 8.5
v -3 3 8.5
v -2 2 8.5
v -2 3 8.5
v 2 2 8.5
v 2 3 8.5
v 3 2 8.5
v 3 3 8.5
v 4 2 8.5
v 4 3 8.5
v 5 1 8.5
v 5 2 8.5
v 5 4 8.5
v -6 0 6.5
v -6 3 6.5
v -5 0 6.5
v -5 1 6.5
v -5 2 6.5
v -5 3 6.5
v 5 0 6.5
v 5 1 6.5
v 5 2 6.5
v 5 3 6.5
v 6 0 6.5
v 6 3 6.5
v -5 4 3.5
v -5 8 3.5
v -4 4 3.5
v -4 7 3.5
v 4 4 3.5
v 4 7 3.5
v 5 4 3.5
v 5 8 3.5
v -6 3 2.5
v -6 4 2.5
v -5 3 2.5
v -5 4 2.5
v 5 3 2.5
v 5 4 2.5
v 6 3 2.5
v 6 4 2.5
v -6 0 -2.5
v -6 3 -2.5
v -5 0 -2.5
v -5 1 -2.5
v -5 2 -2.5
v -5 3 -2.5
v 5 0 -2.5
v 5 1 -2.5
v 5 2 -2.5
v 5 3 -2.5
v 6 0 -2.5
v 6 3 -2.5
v -6 0 3.5
v -6 3 3.5
v -5 0 3.5
v -5 1 3.5
v -5 2 3.5
v -5 3 3.5
v 5 0 3.5
v 5 1 3.5
v 5 2 3.5
v 5 3 3.5
v 6 0 3.5
v 6 3 3.5
v -6 3 0.5
v -6 4 0.5
v -5 3 0.5
v -5 4 0.5
v 5 3 0.5
v 5 4 0.5
v 6 3 0.5
v 6 4 0.5
v -6 0 -5.5
v -6 3 -5.5
v -5 0 -5.5
v -5 1 -5.5
v -5 2 -5.5
v -5 3 -5.5
v 5 0 -5.5
v 5 1 -5.5
v 5 2 -5.5
v 5 3 -5.5
v 6 0 -5.5
v 6 3 -5.5
v -5 4 -6.5
v -5 8 -6.5
v -3 5 -6.5
v -3 7 -6.5
v 3 5 -6.5
v 3 7 -6.5
v 5 4 -6.5
v 5 8 -6.5
v -5 1 -7.5
v -5 2 -7.5
v -5 4 -7.5
v -4 2 -7.5
v -4 3 -7.5
v -3 1 -7.5
v -3 2 -7.5
v -3 3 -7.5
v -2 1 -7.5
v -2 2 -7.5
v -2 3 -7.5
v 2 2 -7.5
v 2 3 -7.5
v 3 2 -7.5
v 3 3 -7.5
v 4 2 -7.5
v 4 3 -7.5
v 5 1 -7.5
v 5 2 -7.5
v 5 4 -7.5
v -3 1 -8.5
v -3 2 -8.5
v -2 1 -8.5
v -2 2 -8.5
v -6 0 6.5
v -5 0 6.5
v 5 0 6.5
v 6 0 6.5
v -6 0 3.5
v -5 0 3.5
v 5 0 3.5
v 6 0 3.5
v -6 0 -2.5
v -5 0 -2.5
v 5 0 -2.5
v 6 0 -2.5
v -6 0 -5.5
v -5 0 -5.5
v 5 0 -5.5
v 6 0 -5.5
v -5 1 8.5
v 5 1 8.5
v -5 1 6.5
v 5 1 6.5
v -5 1 3.5
v 5 1 3.5
v -5 1 -2.5
v 5 1 -2.5
v -5 1 -5.5
v 5 1 -5.5
v -5 1 -7.5
v -3 1 -7.5
v -2 1 -7.5
v 5 1 -7.5
v -3 1 -8.5
v -2 1 -8.5
v -6 3 2.5
v -5 3 2.5
v 5 3 2.5
v 6 3 2.5
v -6 3 0.5
v -5 3 0.5
v 5 3 0.5
v 6 3 0.5
v -3 2 -7.5
v -2 2 -7.5
v -3 2 -8.5
v -2 2 -8.5
v -6 3 6.5
v -5 3 6.5
v 5 3 6.5
v 6 3 6.5
v -6 3 3.5
v -5 3 3.5
v 5 3 3.5
v 6 3 3.5
v -6 3 -2.5
v -5 3 -2.5
v 5 3 -2.5
v 6 3 -2.5
v -6 3 -5.5
v -5 3 -5.5
v 5 3 -5.5
v 6 3 -5.5
v -5 4 8.5
v 5 4 8.5
v -5 4 3.5
v -4 4 3.5
v 4 4 3.5
v 5 4 3.5
v -6 4 2.5
v -5 4 2.5
v 5 4 2.5
v 6 4 2.5
v -6 4 0.5
v -5 4 0.5
v 5 4 0.5
v 6 4 0.5
v -5 4 -6.5
v 5 4 -6.5
v -5 4 -7.5
v 5 4 -7.5
v -5 8 3.5
v 5 8 3.5
v -5 8 -6.5
v 5 8 -6.5

# faces
f 5/7/1 2/7/1 1/7/1
f 6/7/1 2/7/1 5/7/1
f 7/7/1 4/7/1 3/7/1
f 8/7/1 4/7/1 7/7/1
f 9/7/1 5/7/1 1/7/1
f 9/5/1 6/5/1 5/5/1
f 10/7/1 2/7/1 6/7/1
f 10/5/1 6/5/1 9/5/1
f 11/5/1 8/5/1 7/5/1
f 11/7/1 7/7/1 3/7/1
f 12/7/1 4/7/1 8/7/1
f 12/5/1 8/5/1 11/5/1
f 13/7/1 9/7/1 1/7/1
f 13/7/1 10/7/1 9/7/1
f 14/7/1 2/7/1 10/7/1
f 14/7/1 10/7/1 13/7/1
f 17/7/1 11/7/1 3/7/1
f 17/7/1 12/7/1 11/7/1
f 18/7/1 4/7/1 12/7/1
f 18/7/1 12/7/1 17/7/1
f 19/4/1 16/4/1 15/4/1
f 20/4/1 16/4/1 19/4/1
f 27/6/1 22/6/1 21/6/1
f 28/6/1 22/6/1 27/6/1
f 29/6/1 24/6/1 23/6/1
f 30/6/1 24/6/1 29/6/1
f 31/6/1 26/6/1 25/6/1
f 32/6/1 26/6/1 31/6/1
f 33/2/1 28/2/1 27/2/1
f 34/2/1 30/2/1 29/2/1
f 35/2/1 30/2/1 34/2/1
f 36/2/1 30/2/1 35/2/1
f 37/2/1 30/2/1 36/2/1
f 38/2/1 32/2/1 31/2/1
f 39/2/1 33/2/1 27/2/1
f 39/2/1 34/2/1 33/2/1
f 39/2/1 35/2/1 34/2/1
f 40/2/1 35/2/1 39/2/1
f 41/2/1 35/2/1 40/2/1
f 42/2/1 38/2/1 37/2/1
f 42/2/1 37/2/1 36/2/1
f 43/2/1 38/2/1 42/2/1
f 44/2/1 38/2/1 43/2/1
f 45/2/1 32/2/1 38/2/1
f 45/2/1 38/2/1 44/2/1
f 46/2/1 32/2/1 45/2/1
f 47/2/1 32/2/1 46/2/1
f 48/4/1 41/4/1 40/4/1
f 48/7/1 42/7/1 41/7/1
f 48/7/1 43/7/1 42/7/1
f 49/4/1 44/4/1 43/4/1
f 49/7/1 43/7/1 48/7/1
f 50/7/1 45/7/1 44/7/1
f 50/4/1 44/4/1 49/4/1
f 51/4/1 46/4/1 45/4/1
f 51/7/1 45/7/1 50/7/1
f 52/4/1 50/4/1 49/4/1
f 52/4/1 48/4/1 40/4/1
f 52/4/1 51/4/1 50/4/1
f 52/4/1 49/4/1 48/4/1
f 53/4/1 46/4/1 51/4/1
f 53/4/1 51/4/1 52/4/1
f 56/6/1 55/6/1 54/6/1
f 57/6/1 55/6/1 56/6/1
f 62/7/1 59/7/1 58/7/1
f 63/7/1 59/7/1 62/7/1
f 64/7/1 61/7/1 60/7/1
f 65/7/1 61/7/1 64/7/1
f 66/7/2 67/7/2 70/7/2
f 70/7/2 67/7/2 71/7/2
f 68/7/2 69/7/2 72/7/2
f 72/7/2 69/7/2 73/7/2
f 74/6/2 75/6/2 76/6/2
f 76/6/2 75/6/2 77/6/2
f 78/6/2 79/6/2 84/6/2
f 84/6/2 79/6/2 85/6/2
f 80/6/2 81/6/2 86/6/2
f 86/6/2 81/6/2 87/6/2
f 82/6/2 83/6/2 88/6/2
f 88/6/2 83/6/2 89/6/2
f 84/2/2 85/2/2 90/2/2
f 86/2/2 87/2/2 91/2/2
f 91/2/2 87/2/2 92/2/2
f 92/2/2 87/2/2 93/2/2
f 93/2/2 87/2/2 94/2/2
f 88/2/2 89/2/2 95/2/2
f 84/2/2 90/2/2 96/2/2
f 90/2/2 91/2/2 96/2/2
f 91/2/2 92/2/2 96/2/2
f 96/2/2 92/2/2 97/2/2
f 97/2/2 92/2/2 98/2/2
f 94/2/2 95/2/2 99/2/2
f 93/2/2 94/2/2 99/2/2
f 99/2/2 95/2/2 100/2/2
f 100/2/2 95/2/2 101/2/2
f 95/2/2 89/2/2 102/2/2
f 101/2/2 95/2/2 102/2/2
f 102/2/2 89/2/2 103/2/2
f 103/2/2 89/2/2 104/2/2
f 97/4/2 98/4/2 105/4/2
f 98/7/2 99/7/2 105/7/2
f 99/7/2 100/7/2 105/7/2
f 100/4/2 101/4/2 106/4/2
f 105/7/2 100/7/2 106/7/2
f 101/7/2 102/7/2 107/7/2
f 106/4/2 101/4/2 107/4/2
f 102/4/2 103/4/2 108/4/2
f 107/7/2 102/7/2 108/7/2
f 106/4/2 107/4/2 109/4/2
f 97/4/2 105/4/2 109/4/2
f 107/4/2 108/4/2 109/4/2
f 105/4/2 106/4/2 109/4/2
f 108/4/2 103/4/2 110/4/2
f 109/4/2 108/4/2 110/4/2
f 111/7/2 112/7/2 115/7/2
f 115/7/2 112/7/2 116/7/2
f 113/7/2 114/7/2 117/7/2
f 117/7/2 114/7/2 118/7/2
f 111/7/2 115/7/2 119/7/2
f 115/5/2 116/5/2 119/5/2
f 116/7/2 112/7/2 120/7/2
f 119/5/2 116/5/2 120/5/2
f 117/5/2 118/5/2 121/5/2
f 113/7/2 117/7/2 121/7/2
f 118/7/2 114/7/2 122/7/2
f 121/5/2 118/5/2 122/5/2
f 111/7/2 119/7/2 123/7/2
f 119/7/2 120/7/2 123/7/2
f 120/7/2 112/7/2 124/7/2
f 123/7/2 120/7/2 124/7/2
f 113/7/2 121/7/2 127/7/2
f 121/7/2 122/7/2 127/7/2
f 122/7/2 114/7/2 128/7/2
f 127/7/2 122/7/2 128/7/2
f 125/4/2 126/4/2 129/4/2
f 129/4/2 126/4/2 130/4/2
f 134/6/3 132/6/3 131/6/3
f 134/2/3 133/2/3 132/2/3
f 135/2/3 133/2/3 134/2/3
f 136/6/3 134/6/3 131/6/3
f 136/1/3 135/1/3 134/1/3
f 137/2/3 133/2/3 135/2/3
f 137/1/3 135/1/3 136/1/3
f 138/6/3 136/6/3 131/6/3
f 138/2/3 137/2/3 136/2/3
f 139/2/3 133/2/3 137/2/3
f 139/2/3 137/2/3 138/2/3
f 140/6/3 138/6/3 131/6/3
f 140/5/3 139/5/3 138/5/3
f 141/2/3 133/2/3 139/2/3
f 141/5/3 139/5/3 140/5/3
f 142/6/3 140/6/3 131/6/3
f 142/2/3 141/2/3 140/2/3
f 143/2/3 133/2/3 141/2/3
f 143/2/3 141/2/3 142/2/3
f 144/6/3 142/6/3 131/6/3
f 144/1/3 143/1/3 142/1/3
f 145/2/3 133/2/3 143/2/3
f 145/1/3 143/1/3 144/1/3
f 146/6/3 144/6/3 131/6/3
f 147/2/3 145/2/3 144/2/3
f 147/6/3 144/6/3 146/6/3
f 148/2/3 133/2/3 145/2/3
f 148/2/3 145/2/3 147/2/3
f 151/7/3 150/7/3 149/7/3
f 152/7/3 150/7/3 151/7/3
f 153/7/3 150/7/3 152/7/3
f 154/7/3 150/7/3 153/7/3
f 159/7/3 156/7/3 155/7/3
f 159/7/3 158/7/3 157/7/3
f 159/7/3 157/7/3 156/7/3
f 160/7/3 158/7/3 159/7/3
f 163/4/3 162/4/3 161/4/3
f 164/4/3 162/4/3 163/4/3
f 165/7/3 164/7/3 163/7/3
f 166/4/3 162/4/3 164/4/3
f 166/7/3 164/7/3 165/7/3
f 167/4/3 166/4/3 165/4/3
f 168/4/3 162/4/3 166/4/3
f 168/4/3 166/4/3 167/4/3
f 171/4/3 170/4/3 169/4/3
f 172/4/3 170/4/3 171/4/3
f 175/4/3 174/4/3 173/4/3
f 176/4/3 174/4/3 175/4/3
f 179/7/3 178/7/3 177/7/3
f 180/7/3 178/7/3 179/7/3
f 181/7/3 178/7/3 180/7/3
f 182/7/3 178/7/3 181/7/3
f 187/7/3 184/7/3 183/7/3
f 187/7/3 186/7/3 185/7/3
f 187/7/3 185/7/3 184/7/3
f 188/7/3 186/7/3 187/7/3
f 189/7/4 190/7/4 191/7/4
f 191/7/4 190/7/4 192/7/4
f 192/7/4 190/7/4 193/7/4
f 193/7/4 190/7/4 194/7/4
f 195/7/4 196/7/4 199/7/4
f 197/7/4 198/7/4 199/7/4
f 196/7/4 197/7/4 199/7/4
f 199/7/4 198/7/4 200/7/4
f 201/4/4 202/4/4 203/4/4
f 203/4/4 202/4/4 204/4/4
f 205/4/4 206/4/4 207/4/4
f 207/4/4 206/4/4 208/4/4
f 209/7/4 210/7/4 211/7/4
f 211/7/4 210/7/4 212/7/4
f 212/7/4 210/7/4 213/7/4
f 213/7/4 210/7/4 214/7/4
f 215/7/4 216/7/4 219/7/4
f 217/7/4 218/7/4 219/7/4
f 216/7/4 217/7/4 219/7/4
f 219/7/4 218/7/4 220/7/4
f 221/4/4 222/4/4 223/4/4
f 223/4/4 222/4/4 224/4/4
f 221/4/4 223/4/4 225/4/4
f 223/7/4 224/7/4 225/7/4
f 224/4/4 222/4/4 226/4/4
f 225/7/4 224/7/4 226/7/4
f 221/4/4 225/4/4 227/4/4
f 225/4/4 226/4/4 227/4/4
f 226/4/4 222/4/4 228/4/4
f 227/4/4 226/4/4 228/4/4
f 229/6/4 230/6/4 232/6/4
f 230/2/4 231/2/4 232/2/4
f 232/2/4 231/2/4 233/2/4
f 229/6/4 232/6/4 234/6/4
f 232/3/4 233/3/4 235/3/4
f 234/6/4 232/6/4 235/6/4
f 233/2/4 231/2/4 236/2/4
f 235/3/4 233/3/4 236/3/4
f 235/2/4 236/2/4 238/2/4
f 236/2/4 231/2/4 239/2/4
f 238/2/4 236/2/4 239/2/4
f 237/6/4 238/6/4 240/6/4
f 238/5/4 239/5/4 240/5/4
f 239/2/4 231/2/4 241/2/4
f 240/5/4 239/5/4 241/5/4
f 237/6/4 240/6/4 242/6/4
f 240/2/4 241/2/4 242/2/4
f 241/2/4 231/2/4 243/2/4
f 242/2/4 241/2/4 243/2/4
f 237/6/4 242/6/4 244/6/4
f 242/3/4 243/3/4 244/3/4
f 243/2/4 231/2/4 245/2/4
f 244/3/4 243/3/4 245/3/4
f 237/6/4 244/6/4 246/6/4
f 244/2/4 245/2/4 247/2/4
f 246/6/4 244/6/4 247/6/4
f 245/2/4 231/2/4 248/2/4
f 247/2/4 245/2/4 248/2/4
f 249/6/4 250/6/4 251/6/4
f 251/6/4 250/6/4 252/6/4
f 257/7/5 254/7/5 253/7/5
f 258/7/5 254/7/5 257/7/5
f 259/7/5 256/7/5 255/7/5
f 260/7/5 256/7/5 259/7/5
f 265/7/5 262/7/5 261/7/5
f 266/7/5 262/7/5 265/7/5
f 267/7/5 264/7/5 263/7/5
f 268/7/5 264/7/5 267/7/5
f 271/6/5 270/6/5 269/6/5
f 272/6/5 270/6/5 271/6/5
f 273/6/5 272/6/5 271/6/5
f 274/6/5 272/6/5 273/6/5
f 275/6/5 274/6/5 273/6/5
f 276/6/5 274/6/5 275/6/5
f 277/6/5 276/6/5 275/6/5
f 278/6/5 276/6/5 277/6/5
f 279/6/5 278/6/5 277/6/5
f 280/6/5 278/6/5 279/6/5
f 281/6/5 278/6/5 280/6/5
f 282/6/5 278/6/5 281/6/5
f 283/6/5 281/6/5 280/6/5
f 284/6/5 281/6/5 283/6/5
f 289/4/5 286/4/5 285/4/5
f 290/4/5 286/4/5 289/4/5
f 291/4/5 288/4/5 287/4/5
f 292/4/5 288/4/5 291/4/5
f 293/6/6 294/6/6 295/6/6
f 295/6/6 294/6/6 296/6/6
f 297/7/6 298/7/6 301/7/6
f 301/7/6 298/7/6 302/7/6
f 299/7/6 300/7/6 303/7/6
f 303/7/6 300/7/6 304/7/6
f 305/7/6 306/7/6 309/7/6
f 309/7/6 306/7/6 310/7/6
f 307/7/6 308/7/6 311/7/6
f 311/7/6 308/7/6 312/7/6
f 313/2/6 314/2/6 315/2/6
f 315/2/6 314/2/6 316/2/6
f 316/2/6 314/2/6 317/2/6
f 317/2/6 314/2/6 318/2/6
f 319/4/6 320/4/6 323/4/6
f 323/4/6 320/4/6 324/4/6
f 321/4/6 322/4/6 325/4/6
f 325/4/6 322/4/6 326/4/6
f 327/2/6 328/2/6 329/2/6
f 329/2/6 328/2/6 330/2/6
f 331/4/6 332/4/6 333/4/6
f 333/4/6 332/4/6 334/4/6
