# MagicaVoxel @ Ephtracy

# material
mtllib cil.mtl
usemtl palette

# normals
vn -1 0 0
vn 1 0 0
vn 0 0 1
vn 0 0 -1
vn 0 -1 0
vn 0 1 0

# texcoords
vt 0.373047 0.5
vt 0.958984 0.5
vt 0.994141 0.5

# verts
v -8.5 0 0.5
v -8.5 0 -0.5
v -8.5 19 0.5
v -8.5 19 -0.5
v -7.5 19 0.5
v -7.5 19 -0.5
v -7.5 20 0.5
v -7.5 20 -0.5
v 7.5 0 0.5
v 7.5 0 -0.5
v 7.5 15 0.5
v 7.5 15 -0.5
v -7.5 0 0.5
v -7.5 0 -0.5
v -7.5 15 0.5
v -7.5 15 -0.5
v 7.5 19 0.5
v 7.5 19 -0.5
v 7.5 20 0.5
v 7.5 20 -0.5
v 8.5 0 0.5
v 8.5 0 -0.5
v 8.5 19 0.5
v 8.5 19 -0.5
v -8.5 0 0.5
v -8.5 19 0.5
v -7.5 0 0.5
v -7.5 15 0.5
v -7.5 16 0.5
v -7.5 17 0.5
v -7.5 18 0.5
v -7.5 19 0.5
v -7.5 20 0.5
v -6.5 15 0.5
v -6.5 16 0.5
v -6.5 17 0.5
v -6.5 18 0.5
v -6.5 19 0.5
v -6.5 20 0.5
v -5.5 15 0.5
v -5.5 16 0.5
v -5.5 17 0.5
v -5.5 18 0.5
v -5.5 19 0.5
v -5.5 20 0.5
v -4.5 15 0.5
v -4.5 16 0.5
v -4.5 17 0.5
v -4.5 18 0.5
v -4.5 19 0.5
v -4.5 20 0.5
v -3.5 15 0.5
v -3.5 16 0.5
v -3.5 17 0.5
v -3.5 18 0.5
v -3.5 19 0.5
v -3.5 20 0.5
v -2.5 15 0.5
v -2.5 16 0.5
v -2.5 17 0.5
v -2.5 18 0.5
v -2.5 19 0.5
v -2.5 20 0.5
v -1.5 15 0.5
v -1.5 16 0.5
v -1.5 17 0.5
v -1.5 18 0.5
v -1.5 19 0.5
v -1.5 20 0.5
v -0.5 15 0.5
v -0.5 16 0.5
v -0.5 17 0.5
v -0.5 18 0.5
v -0.5 19 0.5
v -0.5 20 0.5
v 0.5 15 0.5
v 0.5 16 0.5
v 0.5 17 0.5
v 0.5 18 0.5
v 0.5 19 0.5
v 0.5 20 0.5
v 1.5 15 0.5
v 1.5 16 0.5
v 1.5 17 0.5
v 1.5 18 0.5
v 1.5 19 0.5
v 1.5 20 0.5
v 2.5 15 0.5
v 2.5 16 0.5
v 2.5 17 0.5
v 2.5 18 0.5
v 2.5 19 0.5
v 2.5 20 0.5
v 3.5 15 0.5
v 3.5 16 0.5
v 3.5 17 0.5
v 3.5 18 0.5
v 3.5 19 0.5
v 3.5 20 0.5
v 4.5 15 0.5
v 4.5 16 0.5
v 4.5 17 0.5
v 4.5 18 0.5
v 4.5 19 0.5
v 4.5 20 0.5
v 5.5 15 0.5
v 5.5 16 0.5
v 5.5 17 0.5
v 5.5 18 0.5
v 5.5 19 0.5
v 5.5 20 0.5
v 6.5 15 0.5
v 6.5 16 0.5
v 6.5 17 0.5
v 6.5 18 0.5
v 6.5 19 0.5
v 6.5 20 0.5
v 7.5 0 0.5
v 7.5 15 0.5
v 7.5 16 0.5
v 7.5 17 0.5
v 7.5 18 0.5
v 7.5 19 0.5
v 7.5 20 0.5
v 8.5 0 0.5
v 8.5 19 0.5
v -8.5 0 -0.5
v -8.5 19 -0.5
v -7.5 0 -0.5
v -7.5 15 -0.5
v -7.5 16 -0.5
v -7.5 17 -0.5
v -7.5 18 -0.5
v -7.5 19 -0.5
v -7.5 20 -0.5
v -6.5 15 -0.5
v -6.5 16 -0.5
v -6.5 17 -0.5
v -6.5 18 -0.5
v -6.5 19 -0.5
v -6.5 20 -0.5
v -5.5 15 -0.5
v -5.5 16 -0.5
v -5.5 17 -0.5
v -5.5 18 -0.5
v -5.5 19 -0.5
v -5.5 20 -0.5
v -4.5 15 -0.5
v -4.5 16 -0.5
v -4.5 17 -0.5
v -4.5 18 -0.5
v -4.5 19 -0.5
v -4.5 20 -0.5
v -3.5 15 -0.5
v -3.5 16 -0.5
v -3.5 17 -0.5
v -3.5 18 -0.5
v -3.5 19 -0.5
v -3.5 20 -0.5
v -2.5 15 -0.5
v -2.5 16 -0.5
v -2.5 17 -0.5
v -2.5 18 -0.5
v -2.5 19 -0.5
v -2.5 20 -0.5
v -1.5 15 -0.5
v -1.5 16 -0.5
v -1.5 17 -0.5
v -1.5 18 -0.5
v -1.5 19 -0.5
v -1.5 20 -0.5
v -0.5 15 -0.5
v -0.5 16 -0.5
v -0.5 17 -0.5
v -0.5 18 -0.5
v -0.5 19 -0.5
v -0.5 20 -0.5
v 0.5 15 -0.5
v 0.5 16 -0.5
v 0.5 17 -0.5
v 0.5 18 -0.5
v 0.5 19 -0.5
v 0.5 20 -0.5
v 1.5 15 -0.5
v 1.5 16 -0.5
v 1.5 17 -0.5
v 1.5 18 -0.5
v 1.5 19 -0.5
v 1.5 20 -0.5
v 2.5 15 -0.5
v 2.5 16 -0.5
v 2.5 17 -0.5
v 2.5 18 -0.5
v 2.5 19 -0.5
v 2.5 20 -0.5
v 3.5 15 -0.5
v 3.5 16 -0.5
v 3.5 17 -0.5
v 3.5 18 -0.5
v 3.5 19 -0.5
v 3.5 20 -0.5
v 4.5 15 -0.5
v 4.5 16 -0.5
v 4.5 17 -0.5
v 4.5 18 -0.5
v 4.5 19 -0.5
v 4.5 20 -0.5
v 5.5 15 -0.5
v 5.5 16 -0.5
v 5.5 17 -0.5
v 5.5 18 -0.5
v 5.5 19 -0.5
v 5.5 20 -0.5
v 6.5 15 -0.5
v 6.5 16 -0.5
v 6.5 17 -0.5
v 6.5 18 -0.5
v 6.5 19 -0.5
v 6.5 20 -0.5
v 7.5 0 -0.5
v 7.5 15 -0.5
v 7.5 16 -0.5
v 7.5 17 -0.5
v 7.5 18 -0.5
v 7.5 19 -0.5
v 7.5 20 -0.5
v 8.5 0 -0.5
v 8.5 19 -0.5
v -8.5 0 0.5
v -7.5 0 0.5
v 7.5 0 0.5
v 8.5 0 0.5
v -8.5 0 -0.5
v -7.5 0 -0.5
v 7.5 0 -0.5
v 8.5 0 -0.5
v -7.5 15 0.5
v -6.5 15 0.5
v -5.5 15 0.5
v -4.5 15 0.5
v -3.5 15 0.5
v -2.5 15 0.5
v -1.5 15 0.5
v -0.5 15 0.5
v 0.5 15 0.5
v 1.5 15 0.5
v 2.5 15 0.5
v 3.5 15 0.5
v 4.5 15 0.5
v 5.5 15 0.5
v 6.5 15 0.5
v 7.5 15 0.5
v -7.5 15 -0.5
v -6.5 15 -0.5
v -5.5 15 -0.5
v -4.5 15 -0.5
v -3.5 15 -0.5
v -2.5 15 -0.5
v -1.5 15 -0.5
v -0.5 15 -0.5
v 0.5 15 -0.5
v 1.5 15 -0.5
v 2.5 15 -0.5
v 3.5 15 -0.5
v 4.5 15 -0.5
v 5.5 15 -0.5
v 6.5 15 -0.5
v 7.5 15 -0.5
v -8.5 19 0.5
v -7.5 19 0.5
v 7.5 19 0.5
v 8.5 19 0.5
v -8.5 19 -0.5
v -7.5 19 -0.5
v 7.5 19 -0.5
v 8.5 19 -0.5
v -7.5 20 0.5
v -6.5 20 0.5
v -5.5 20 0.5
v -4.5 20 0.5
v -3.5 20 0.5
v -2.5 20 0.5
v -1.5 20 0.5
v -0.5 20 0.5
v 0.5 20 0.5
v 1.5 20 0.5
v 2.5 20 0.5
v 3.5 20 0.5
v 4.5 20 0.5
v 5.5 20 0.5
v 6.5 20 0.5
v 7.5 20 0.5
v -7.5 20 -0.5
v -6.5 20 -0.5
v -5.5 20 -0.5
v -4.5 20 -0.5
v -3.5 20 -0.5
v -2.5 20 -0.5
v -1.5 20 -0.5
v -0.5 20 -0.5
v 0.5 20 -0.5
v 1.5 20 -0.5
v 2.5 20 -0.5
v 3.5 20 -0.5
v 4.5 20 -0.5
v 5.5 20 -0.5
v 6.5 20 -0.5
v 7.5 20 -0.5

# faces
f 3/1/1 2/1/1 1/1/1
f 4/1/1 2/1/1 3/1/1
f 7/2/1 6/2/1 5/2/1
f 8/2/1 6/2/1 7/2/1
f 11/1/1 10/1/1 9/1/1
f 12/1/1 10/1/1 11/1/1
f 13/1/2 14/1/2 15/1/2
f 15/1/2 14/1/2 16/1/2
f 17/2/2 18/2/2 19/2/2
f 19/2/2 18/2/2 20/2/2
f 21/1/2 22/1/2 23/1/2
f 23/1/2 22/1/2 24/1/2
f 27/1/3 26/1/3 25/1/3
f 28/1/3 26/1/3 27/1/3
f 29/1/3 26/1/3 28/1/3
f 30/1/3 26/1/3 29/1/3
f 31/1/3 26/1/3 30/1/3
f 32/1/3 26/1/3 31/1/3
f 34/2/3 29/2/3 28/2/3
f 35/3/3 30/3/3 29/3/3
f 35/2/3 29/2/3 34/2/3
f 36/2/3 31/2/3 30/2/3
f 36/3/3 30/3/3 35/3/3
f 37/3/3 32/3/3 31/3/3
f 37/2/3 31/2/3 36/2/3
f 38/2/3 33/2/3 32/2/3
f 38/3/3 32/3/3 37/3/3
f 39/2/3 33/2/3 38/2/3
f 40/3/3 35/3/3 34/3/3
f 41/2/3 36/2/3 35/2/3
f 41/3/3 35/3/3 40/3/3
f 42/3/3 37/3/3 36/3/3
f 42/2/3 36/2/3 41/2/3
f 43/2/3 38/2/3 37/2/3
f 43/3/3 37/3/3 42/3/3
f 44/3/3 39/3/3 38/3/3
f 44/2/3 38/2/3 43/2/3
f 45/3/3 39/3/3 44/3/3
f 46/2/3 41/2/3 40/2/3
f 47/3/3 42/3/3 41/3/3
f 47/2/3 41/2/3 46/2/3
f 48/2/3 43/2/3 42/2/3
f 48/3/3 42/3/3 47/3/3
f 49/3/3 44/3/3 43/3/3
f 49/2/3 43/2/3 48/2/3
f 50/2/3 45/2/3 44/2/3
f 50/3/3 44/3/3 49/3/3
f 51/2/3 45/2/3 50/2/3
f 52/3/3 47/3/3 46/3/3
f 53/2/3 48/2/3 47/2/3
f 53/3/3 47/3/3 52/3/3
f 54/3/3 49/3/3 48/3/3
f 54/2/3 48/2/3 53/2/3
f 55/2/3 50/2/3 49/2/3
f 55/3/3 49/3/3 54/3/3
f 56/3/3 51/3/3 50/3/3
f 56/2/3 50/2/3 55/2/3
f 57/3/3 51/3/3 56/3/3
f 58/2/3 53/2/3 52/2/3
f 59/3/3 54/3/3 53/3/3
f 59/2/3 53/2/3 58/2/3
f 60/2/3 55/2/3 54/2/3
f 60/3/3 54/3/3 59/3/3
f 61/3/3 56/3/3 55/3/3
f 61/2/3 55/2/3 60/2/3
f 62/2/3 57/2/3 56/2/3
f 62/3/3 56/3/3 61/3/3
f 63/2/3 57/2/3 62/2/3
f 64/3/3 59/3/3 58/3/3
f 65/2/3 60/2/3 59/2/3
f 65/3/3 59/3/3 64/3/3
f 66/3/3 61/3/3 60/3/3
f 66/2/3 60/2/3 65/2/3
f 67/2/3 62/2/3 61/2/3
f 67/3/3 61/3/3 66/3/3
f 68/3/3 63/3/3 62/3/3
f 68/2/3 62/2/3 67/2/3
f 69/3/3 63/3/3 68/3/3
f 70/2/3 65/2/3 64/2/3
f 71/3/3 66/3/3 65/3/3
f 71/2/3 65/2/3 70/2/3
f 72/2/3 67/2/3 66/2/3
f 72/3/3 66/3/3 71/3/3
f 73/3/3 68/3/3 67/3/3
f 73/2/3 67/2/3 72/2/3
f 74/2/3 69/2/3 68/2/3
f 74/3/3 68/3/3 73/3/3
f 75/2/3 69/2/3 74/2/3
f 76/3/3 71/3/3 70/3/3
f 77/2/3 72/2/3 71/2/3
f 77/3/3 71/3/3 76/3/3
f 78/3/3 73/3/3 72/3/3
f 78/2/3 72/2/3 77/2/3
f 79/2/3 74/2/3 73/2/3
f 79/3/3 73/3/3 78/3/3
f 80/3/3 75/3/3 74/3/3
f 80/2/3 74/2/3 79/2/3
f 81/3/3 75/3/3 80/3/3
f 82/2/3 77/2/3 76/2/3
f 83/3/3 78/3/3 77/3/3
f 83/2/3 77/2/3 82/2/3
f 84/2/3 79/2/3 78/2/3
f 84/3/3 78/3/3 83/3/3
f 85/3/3 80/3/3 79/3/3
f 85/2/3 79/2/3 84/2/3
f 86/2/3 81/2/3 80/2/3
f 86/3/3 80/3/3 85/3/3
f 87/2/3 81/2/3 86/2/3
f 88/3/3 83/3/3 82/3/3
f 89/2/3 84/2/3 83/2/3
f 89/3/3 83/3/3 88/3/3
f 90/3/3 85/3/3 84/3/3
f 90/2/3 84/2/3 89/2/3
f 91/2/3 86/2/3 85/2/3
f 91/3/3 85/3/3 90/3/3
f 92/3/3 87/3/3 86/3/3
f 92/2/3 86/2/3 91/2/3
f 93/3/3 87/3/3 92/3/3
f 94/2/3 89/2/3 88/2/3
f 95/3/3 90/3/3 89/3/3
f 95/2/3 89/2/3 94/2/3
f 96/2/3 91/2/3 90/2/3
f 96/3/3 90/3/3 95/3/3
f 97/3/3 92/3/3 91/3/3
f 97/2/3 91/2/3 96/2/3
f 98/2/3 93/2/3 92/2/3
f 98/3/3 92/3/3 97/3/3
f 99/2/3 93/2/3 98/2/3
f 100/3/3 95/3/3 94/3/3
f 101/2/3 96/2/3 95/2/3
f 101/3/3 95/3/3 100/3/3
f 102/3/3 97/3/3 96/3/3
f 102/2/3 96/2/3 101/2/3
f 103/2/3 98/2/3 97/2/3
f 103/3/3 97/3/3 102/3/3
f 104/3/3 99/3/3 98/3/3
f 104/2/3 98/2/3 103/2/3
f 105/3/3 99/3/3 104/3/3
f 106/2/3 101/2/3 100/2/3
f 107/3/3 102/3/3 101/3/3
f 107/2/3 101/2/3 106/2/3
f 108/2/3 103/2/3 102/2/3
f 108/3/3 102/3/3 107/3/3
f 109/3/3 104/3/3 103/3/3
f 109/2/3 103/2/3 108/2/3
f 110/2/3 105/2/3 104/2/3
f 110/3/3 104/3/3 109/3/3
f 111/2/3 105/2/3 110/2/3
f 112/3/3 107/3/3 106/3/3
f 113/2/3 108/2/3 107/2/3
f 113/3/3 107/3/3 112/3/3
f 114/3/3 109/3/3 108/3/3
f 114/2/3 108/2/3 113/2/3
f 115/2/3 110/2/3 109/2/3
f 115/3/3 109/3/3 114/3/3
f 116/3/3 111/3/3 110/3/3
f 116/2/3 110/2/3 115/2/3
f 117/3/3 111/3/3 116/3/3
f 119/2/3 113/2/3 112/2/3
f 120/3/3 114/3/3 113/3/3
f 120/2/3 113/2/3 119/2/3
f 121/2/3 115/2/3 114/2/3
f 121/3/3 114/3/3 120/3/3
f 122/3/3 116/3/3 115/3/3
f 122/2/3 115/2/3 121/2/3
f 123/2/3 117/2/3 116/2/3
f 123/3/3 116/3/3 122/3/3
f 124/2/3 117/2/3 123/2/3
f 125/1/3 119/1/3 118/1/3
f 125/1/3 120/1/3 119/1/3
f 125/1/3 123/1/3 122/1/3
f 125/1/3 121/1/3 120/1/3
f 125/1/3 122/1/3 121/1/3
f 126/1/3 123/1/3 125/1/3
f 127/1/4 128/1/4 129/1/4
f 129/1/4 128/1/4 130/1/4
f 130/1/4 128/1/4 131/1/4
f 131/1/4 128/1/4 132/1/4
f 132/1/4 128/1/4 133/1/4
f 133/1/4 128/1/4 134/1/4
f 130/2/4 131/2/4 136/2/4
f 131/3/4 132/3/4 137/3/4
f 136/2/4 131/2/4 137/2/4
f 132/2/4 133/2/4 138/2/4
f 137/3/4 132/3/4 138/3/4
f 133/3/4 134/3/4 139/3/4
f 138/2/4 133/2/4 139/2/4
f 134/2/4 135/2/4 140/2/4
f 139/3/4 134/3/4 140/3/4
f 140/2/4 135/2/4 141/2/4
f 136/3/4 137/3/4 142/3/4
f 137/2/4 138/2/4 143/2/4
f 142/3/4 137/3/4 143/3/4
f 138/3/4 139/3/4 144/3/4
f 143/2/4 138/2/4 144/2/4
f 139/2/4 140/2/4 145/2/4
f 144/3/4 139/3/4 145/3/4
f 140/3/4 141/3/4 146/3/4
f 145/2/4 140/2/4 146/2/4
f 146/3/4 141/3/4 147/3/4
f 142/2/4 143/2/4 148/2/4
f 143/3/4 144/3/4 149/3/4
f 148/2/4 143/2/4 149/2/4
f 144/2/4 145/2/4 150/2/4
f 149/3/4 144/3/4 150/3/4
f 145/3/4 146/3/4 151/3/4
f 150/2/4 145/2/4 151/2/4
f 146/2/4 147/2/4 152/2/4
f 151/3/4 146/3/4 152/3/4
f 152/2/4 147/2/4 153/2/4
f 148/3/4 149/3/4 154/3/4
f 149/2/4 150/2/4 155/2/4
f 154/3/4 149/3/4 155/3/4
f 150/3/4 151/3/4 156/3/4
f 155/2/4 150/2/4 156/2/4
f 151/2/4 152/2/4 157/2/4
f 156/3/4 151/3/4 157/3/4
f 152/3/4 153/3/4 158/3/4
f 157/2/4 152/2/4 158/2/4
f 158/3/4 153/3/4 159/3/4
f 154/2/4 155/2/4 160/2/4
f 155/3/4 156/3/4 161/3/4
f 160/2/4 155/2/4 161/2/4
f 156/2/4 157/2/4 162/2/4
f 161/3/4 156/3/4 162/3/4
f 157/3/4 158/3/4 163/3/4
f 162/2/4 157/2/4 163/2/4
f 158/2/4 159/2/4 164/2/4
f 163/3/4 158/3/4 164/3/4
f 164/2/4 159/2/4 165/2/4
f 160/3/4 161/3/4 166/3/4
f 161/2/4 162/2/4 167/2/4
f 166/3/4 161/3/4 167/3/4
f 162/3/4 163/3/4 168/3/4
f 167/2/4 162/2/4 168/2/4
f 163/2/4 164/2/4 169/2/4
f 168/3/4 163/3/4 169/3/4
f 164/3/4 165/3/4 170/3/4
f 169/2/4 164/2/4 170/2/4
f 170/3/4 165/3/4 171/3/4
f 166/2/4 167/2/4 172/2/4
f 167/3/4 168/3/4 173/3/4
f 172/2/4 167/2/4 173/2/4
f 168/2/4 169/2/4 174/2/4
f 173/3/4 168/3/4 174/3/4
f 169/3/4 170/3/4 175/3/4
f 174/2/4 169/2/4 175/2/4
f 170/2/4 171/2/4 176/2/4
f 175/3/4 170/3/4 176/3/4
f 176/2/4 171/2/4 177/2/4
f 172/3/4 173/3/4 178/3/4
f 173/2/4 174/2/4 179/2/4
f 178/3/4 173/3/4 179/3/4
f 174/3/4 175/3/4 180/3/4
f 179/2/4 174/2/4 180/2/4
f 175/2/4 176/2/4 181/2/4
f 180/3/4 175/3/4 181/3/4
f 176/3/4 177/3/4 182/3/4
f 181/2/4 176/2/4 182/2/4
f 182/3/4 177/3/4 183/3/4
f 178/2/4 179/2/4 184/2/4
f 179/3/4 180/3/4 185/3/4
f 184/2/4 179/2/4 185/2/4
f 180/2/4 181/2/4 186/2/4
f 185/3/4 180/3/4 186/3/4
f 181/3/4 182/3/4 187/3/4
f 186/2/4 181/2/4 187/2/4
f 182/2/4 183/2/4 188/2/4
f 187/3/4 182/3/4 188/3/4
f 188/2/4 183/2/4 189/2/4
f 184/3/4 185/3/4 190/3/4
f 185/2/4 186/2/4 191/2/4
f 190/3/4 185/3/4 191/3/4
f 186/3/4 187/3/4 192/3/4
f 191/2/4 186/2/4 192/2/4
f 187/2/4 188/2/4 193/2/4
f 192/3/4 187/3/4 193/3/4
f 188/3/4 189/3/4 194/3/4
f 193/2/4 188/2/4 194/2/4
f 194/3/4 189/3/4 195/3/4
f 190/2/4 191/2/4 196/2/4
f 191/3/4 192/3/4 197/3/4
f 196/2/4 191/2/4 197/2/4
f 192/2/4 193/2/4 198/2/4
f 197/3/4 192/3/4 198/3/4
f 193/3/4 194/3/4 199/3/4
f 198/2/4 193/2/4 199/2/4
f 194/2/4 195/2/4 200/2/4
f 199/3/4 194/3/4 200/3/4
f 200/2/4 195/2/4 201/2/4
f 196/3/4 197/3/4 202/3/4
f 197/2/4 198/2/4 203/2/4
f 202/3/4 197/3/4 203/3/4
f 198/3/4 199/3/4 204/3/4
f 203/2/4 198/2/4 204/2/4
f 199/2/4 200/2/4 205/2/4
f 204/3/4 199/3/4 205/3/4
f 200/3/4 201/3/4 206/3/4
f 205/2/4 200/2/4 206/2/4
f 206/3/4 201/3/4 207/3/4
f 202/2/4 203/2/4 208/2/4
f 203/3/4 204/3/4 209/3/4
f 208/2/4 203/2/4 209/2/4
f 204/2/4 205/2/4 210/2/4
f 209/3/4 204/3/4 210/3/4
f 205/3/4 206/3/4 211/3/4
f 210/2/4 205/2/4 211/2/4
f 206/2/4 207/2/4 212/2/4
f 211/3/4 206/3/4 212/3/4
f 212/2/4 207/2/4 213/2/4
f 208/3/4 209/3/4 214/3/4
f 209/2/4 210/2/4 215/2/4
f 214/3/4 209/3/4 215/3/4
f 210/3/4 211/3/4 216/3/4
f 215/2/4 210/2/4 216/2/4
f 211/2/4 212/2/4 217/2/4
f 216/3/4 211/3/4 217/3/4
f 212/3/4 213/3/4 218/3/4
f 217/2/4 212/2/4 218/2/4
f 218/3/4 213/3/4 219/3/4
f 214/2/4 215/2/4 221/2/4
f 215/3/4 216/3/4 222/3/4
f 221/2/4 215/2/4 222/2/4
f 216/2/4 217/2/4 223/2/4
f 222/3/4 216/3/4 223/3/4
f 217/3/4 218/3/4 224/3/4
f 223/2/4 217/2/4 224/2/4
f 218/2/4 219/2/4 225/2/4
f 224/3/4 218/3/4 225/3/4
f 225/2/4 219/2/4 226/2/4
f 220/1/4 221/1/4 227/1/4
f 221/1/4 222/1/4 227/1/4
f 224/1/4 225/1/4 227/1/4
f 222/1/4 223/1/4 227/1/4
f 223/1/4 224/1/4 227/1/4
f 227/1/4 225/1/4 228/1/4
f 233/1/5 230/1/5 229/1/5
f 234/1/5 230/1/5 233/1/5
f 235/1/5 232/1/5 231/1/5
f 236/1/5 232/1/5 235/1/5
f 253/2/5 238/2/5 237/2/5
f 254/3/5 239/3/5 238/3/5
f 254/2/5 238/2/5 253/2/5
f 255/2/5 240/2/5 239/2/5
f 255/3/5 239/3/5 254/3/5
f 256/3/5 241/3/5 240/3/5
f 256/2/5 240/2/5 255/2/5
f 257/2/5 242/2/5 241/2/5
f 257/3/5 241/3/5 256/3/5
f 258/3/5 243/3/5 242/3/5
f 258/2/5 242/2/5 257/2/5
f 259/2/5 244/2/5 243/2/5
f 259/3/5 243/3/5 258/3/5
f 260/3/5 245/3/5 244/3/5
f 260/2/5 244/2/5 259/2/5
f 261/2/5 246/2/5 245/2/5
f 261/3/5 245/3/5 260/3/5
f 262/3/5 247/3/5 246/3/5
f 262/2/5 246/2/5 261/2/5
f 263/2/5 248/2/5 247/2/5
f 263/3/5 247/3/5 262/3/5
f 264/3/5 249/3/5 248/3/5
f 264/2/5 248/2/5 263/2/5
f 265/2/5 250/2/5 249/2/5
f 265/3/5 249/3/5 264/3/5
f 266/3/5 251/3/5 250/3/5
f 266/2/5 250/2/5 265/2/5
f 267/2/5 252/2/5 251/2/5
f 267/3/5 251/3/5 266/3/5
f 268/2/5 252/2/5 267/2/5
f 269/1/6 270/1/6 273/1/6
f 273/1/6 270/1/6 274/1/6
f 271/1/6 272/1/6 275/1/6
f 275/1/6 272/1/6 276/1/6
f 277/2/6 278/2/6 293/2/6
f 278/3/6 279/3/6 294/3/6
f 293/2/6 278/2/6 294/2/6
f 279/2/6 280/2/6 295/2/6
f 294/3/6 279/3/6 295/3/6
f 280/3/6 281/3/6 296/3/6
f 295/2/6 280/2/6 296/2/6
f 281/2/6 282/2/6 297/2/6
f 296/3/6 281/3/6 297/3/6
f 282/3/6 283/3/6 298/3/6
f 297/2/6 282/2/6 298/2/6
f 283/2/6 284/2/6 299/2/6
f 298/3/6 283/3/6 299/3/6
f 284/3/6 285/3/6 300/3/6
f 299/2/6 284/2/6 300/2/6
f 285/2/6 286/2/6 301/2/6
f 300/3/6 285/3/6 301/3/6
f 286/3/6 287/3/6 302/3/6
f 301/2/6 286/2/6 302/2/6
f 287/2/6 288/2/6 303/2/6
f 302/3/6 287/3/6 303/3/6
f 288/3/6 289/3/6 304/3/6
f 303/2/6 288/2/6 304/2/6
f 289/2/6 290/2/6 305/2/6
f 304/3/6 289/3/6 305/3/6
f 290/3/6 291/3/6 306/3/6
f 305/2/6 290/2/6 306/2/6
f 291/2/6 292/2/6 307/2/6
f 306/3/6 291/3/6 307/3/6
f 307/2/6 292/2/6 308/2/6
