# MagicaVoxel @ Ephtracy

# material
mtllib sachovnice.mtl
usemtl palette

# normals
vn -1 0 0
vn 1 0 0
vn 0 0 1
vn 0 0 -1
vn 0 -1 0
vn 0 1 0

# texcoords
vt 0.958984 0.5
vt 0.994141 0.5

# verts
v -10.5 0 2
v -10.5 0 1
v -10.5 0 -0
v -10.5 0 -1
v -10.5 0 -2
v -10.5 1 2
v -10.5 1 1
v -10.5 1 -0
v -10.5 1 -1
v -10.5 1 -2
v 10.5 0 2
v 10.5 0 1
v 10.5 0 -0
v 10.5 0 -1
v 10.5 0 -2
v 10.5 1 2
v 10.5 1 1
v 10.5 1 -0
v 10.5 1 -1
v 10.5 1 -2
v -10.5 0 2
v -10.5 1 2
v -9.5 0 2
v -9.5 1 2
v -8.5 0 2
v -8.5 1 2
v -7.5 0 2
v -7.5 1 2
v -6.5 0 2
v -6.5 1 2
v -5.5 0 2
v -5.5 1 2
v -4.5 0 2
v -4.5 1 2
v -3.5 0 2
v -3.5 1 2
v -2.5 0 2
v -2.5 1 2
v -1.5 0 2
v -1.5 1 2
v -0.5 0 2
v -0.5 1 2
v 0.5 0 2
v 0.5 1 2
v 1.5 0 2
v 1.5 1 2
v 2.5 0 2
v 2.5 1 2
v 3.5 0 2
v 3.5 1 2
v 4.5 0 2
v 4.5 1 2
v 5.5 0 2
v 5.5 1 2
v 6.5 0 2
v 6.5 1 2
v 7.5 0 2
v 7.5 1 2
v 8.5 0 2
v 8.5 1 2
v 9.5 0 2
v 9.5 1 2
v 10.5 0 2
v 10.5 1 2
v -10.5 0 -2
v -10.5 1 -2
v -9.5 0 -2
v -9.5 1 -2
v -8.5 0 -2
v -8.5 1 -2
v -7.5 0 -2
v -7.5 1 -2
v -6.5 0 -2
v -6.5 1 -2
v -5.5 0 -2
v -5.5 1 -2
v -4.5 0 -2
v -4.5 1 -2
v -3.5 0 -2
v -3.5 1 -2
v -2.5 0 -2
v -2.5 1 -2
v -1.5 0 -2
v -1.5 1 -2
v -0.5 0 -2
v -0.5 1 -2
v 0.5 0 -2
v 0.5 1 -2
v 1.5 0 -2
v 1.5 1 -2
v 2.5 0 -2
v 2.5 1 -2
v 3.5 0 -2
v 3.5 1 -2
v 4.5 0 -2
v 4.5 1 -2
v 5.5 0 -2
v 5.5 1 -2
v 6.5 0 -2
v 6.5 1 -2
v 7.5 0 -2
v 7.5 1 -2
v 8.5 0 -2
v 8.5 1 -2
v 9.5 0 -2
v 9.5 1 -2
v 10.5 0 -2
v 10.5 1 -2
v -10.5 0 2
v -9.5 0 2
v -8.5 0 2
v -7.5 0 2
v -6.5 0 2
v -5.5 0 2
v -4.5 0 2
v -3.5 0 2
v -2.5 0 2
v -1.5 0 2
v -0.5 0 2
v 0.5 0 2
v 1.5 0 2
v 2.5 0 2
v 3.5 0 2
v 4.5 0 2
v 5.5 0 2
v 6.5 0 2
v 7.5 0 2
v 8.5 0 2
v 9.5 0 2
v 10.5 0 2
v -10.5 0 1
v -9.5 0 1
v -8.5 0 1
v -7.5 0 1
v -6.5 0 1
v -5.5 0 1
v -4.5 0 1
v -3.5 0 1
v -2.5 0 1
v -1.5 0 1
v -0.5 0 1
v 0.5 0 1
v 1.5 0 1
v 2.5 0 1
v 3.5 0 1
v 4.5 0 1
v 5.5 0 1
v 6.5 0 1
v 7.5 0 1
v 8.5 0 1
v 9.5 0 1
v 10.5 0 1
v -10.5 0 -0
v -9.5 0 -0
v -8.5 0 -0
v -7.5 0 -0
v -6.5 0 -0
v -5.5 0 -0
v -4.5 0 -0
v -3.5 0 -0
v -2.5 0 -0
v -1.5 0 -0
v -0.5 0 -0
v 0.5 0 -0
v 1.5 0 -0
v 2.5 0 -0
v 3.5 0 -0
v 4.5 0 -0
v 5.5 0 -0
v 6.5 0 -0
v 7.5 0 -0
v 8.5 0 -0
v 9.5 0 -0
v 10.5 0 -0
v -10.5 0 -1
v -9.5 0 -1
v -8.5 0 -1
v -7.5 0 -1
v -6.5 0 -1
v -5.5 0 -1
v -4.5 0 -1
v -3.5 0 -1
v -2.5 0 -1
v -1.5 0 -1
v -0.5 0 -1
v 0.5 0 -1
v 1.5 0 -1
v 2.5 0 -1
v 3.5 0 -1
v 4.5 0 -1
v 5.5 0 -1
v 6.5 0 -1
v 7.5 0 -1
v 8.5 0 -1
v 9.5 0 -1
v 10.5 0 -1
v -10.5 0 -2
v -9.5 0 -2
v -8.5 0 -2
v -7.5 0 -2
v -6.5 0 -2
v -5.5 0 -2
v -4.5 0 -2
v -3.5 0 -2
v -2.5 0 -2
v -1.5 0 -2
v -0.5 0 -2
v 0.5 0 -2
v 1.5 0 -2
v 2.5 0 -2
v 3.5 0 -2
v 4.5 0 -2
v 5.5 0 -2
v 6.5 0 -2
v 7.5 0 -2
v 8.5 0 -2
v 9.5 0 -2
v 10.5 0 -2
v -10.5 1 2
v -9.5 1 2
v -8.5 1 2
v -7.5 1 2
v -6.5 1 2
v -5.5 1 2
v -4.5 1 2
v -3.5 1 2
v -2.5 1 2
v -1.5 1 2
v -0.5 1 2
v 0.5 1 2
v 1.5 1 2
v 2.5 1 2
v 3.5 1 2
v 4.5 1 2
v 5.5 1 2
v 6.5 1 2
v 7.5 1 2
v 8.5 1 2
v 9.5 1 2
v 10.5 1 2
v -10.5 1 1
v -9.5 1 1
v -8.5 1 1
v -7.5 1 1
v -6.5 1 1
v -5.5 1 1
v -4.5 1 1
v -3.5 1 1
v -2.5 1 1
v -1.5 1 1
v -0.5 1 1
v 0.5 1 1
v 1.5 1 1
v 2.5 1 1
v 3.5 1 1
v 4.5 1 1
v 5.5 1 1
v 6.5 1 1
v 7.5 1 1
v 8.5 1 1
v 9.5 1 1
v 10.5 1 1
v -10.5 1 -0
v -9.5 1 -0
v -8.5 1 -0
v -7.5 1 -0
v -6.5 1 -0
v -5.5 1 -0
v -4.5 1 -0
v -3.5 1 -0
v -2.5 1 -0
v -1.5 1 -0
v -0.5 1 -0
v 0.5 1 -0
v 1.5 1 -0
v 2.5 1 -0
v 3.5 1 -0
v 4.5 1 -0
v 5.5 1 -0
v 6.5 1 -0
v 7.5 1 -0
v 8.5 1 -0
v 9.5 1 -0
v 10.5 1 -0
v -10.5 1 -1
v -9.5 1 -1
v -8.5 1 -1
v -7.5 1 -1
v -6.5 1 -1
v -5.5 1 -1
v -4.5 1 -1
v -3.5 1 -1
v -2.5 1 -1
v -1.5 1 -1
v -0.5 1 -1
v 0.5 1 -1
v 1.5 1 -1
v 2.5 1 -1
v 3.5 1 -1
v 4.5 1 -1
v 5.5 1 -1
v 6.5 1 -1
v 7.5 1 -1
v 8.5 1 -1
v 9.5 1 -1
v 10.5 1 -1
v -10.5 1 -2
v -9.5 1 -2
v -8.5 1 -2
v -7.5 1 -2
v -6.5 1 -2
v -5.5 1 -2
v -4.5 1 -2
v -3.5 1 -2
v -2.5 1 -2
v -1.5 1 -2
v -0.5 1 -2
v 0.5 1 -2
v 1.5 1 -2
v 2.5 1 -2
v 3.5 1 -2
v 4.5 1 -2
v 5.5 1 -2
v 6.5 1 -2
v 7.5 1 -2
v 8.5 1 -2
v 9.5 1 -2
v 10.5 1 -2

# faces
f 6/2/1 2/2/1 1/2/1
f 7/1/1 3/1/1 2/1/1
f 7/2/1 2/2/1 6/2/1
f 8/2/1 4/2/1 3/2/1
f 8/1/1 3/1/1 7/1/1
f 9/1/1 5/1/1 4/1/1
f 9/2/1 4/2/1 8/2/1
f 10/1/1 5/1/1 9/1/1
f 11/2/2 12/2/2 16/2/2
f 12/1/2 13/1/2 17/1/2
f 16/2/2 12/2/2 17/2/2
f 13/2/2 14/2/2 18/2/2
f 17/1/2 13/1/2 18/1/2
f 14/1/2 15/1/2 19/1/2
f 18/2/2 14/2/2 19/2/2
f 19/1/2 15/1/2 20/1/2
f 23/2/3 22/2/3 21/2/3
f 24/2/3 22/2/3 23/2/3
f 25/1/3 24/1/3 23/1/3
f 26/1/3 24/1/3 25/1/3
f 27/2/3 26/2/3 25/2/3
f 28/2/3 26/2/3 27/2/3
f 29/1/3 28/1/3 27/1/3
f 30/1/3 28/1/3 29/1/3
f 31/2/3 30/2/3 29/2/3
f 32/2/3 30/2/3 31/2/3
f 33/1/3 32/1/3 31/1/3
f 34/1/3 32/1/3 33/1/3
f 35/2/3 34/2/3 33/2/3
f 36/2/3 34/2/3 35/2/3
f 37/1/3 36/1/3 35/1/3
f 38/1/3 36/1/3 37/1/3
f 39/2/3 38/2/3 37/2/3
f 40/2/3 38/2/3 39/2/3
f 41/1/3 40/1/3 39/1/3
f 42/1/3 40/1/3 41/1/3
f 43/2/3 42/2/3 41/2/3
f 44/2/3 42/2/3 43/2/3
f 45/1/3 44/1/3 43/1/3
f 46/1/3 44/1/3 45/1/3
f 47/2/3 46/2/3 45/2/3
f 48/2/3 46/2/3 47/2/3
f 49/1/3 48/1/3 47/1/3
f 50/1/3 48/1/3 49/1/3
f 51/2/3 50/2/3 49/2/3
f 52/2/3 50/2/3 51/2/3
f 53/1/3 52/1/3 51/1/3
f 54/1/3 52/1/3 53/1/3
f 55/2/3 54/2/3 53/2/3
f 56/2/3 54/2/3 55/2/3
f 57/1/3 56/1/3 55/1/3
f 58/1/3 56/1/3 57/1/3
f 59/2/3 58/2/3 57/2/3
f 60/2/3 58/2/3 59/2/3
f 61/1/3 60/1/3 59/1/3
f 62/1/3 60/1/3 61/1/3
f 63/2/3 62/2/3 61/2/3
f 64/2/3 62/2/3 63/2/3
f 65/1/4 66/1/4 67/1/4
f 67/1/4 66/1/4 68/1/4
f 67/2/4 68/2/4 69/2/4
f 69/2/4 68/2/4 70/2/4
f 69/1/4 70/1/4 71/1/4
f 71/1/4 70/1/4 72/1/4
f 71/2/4 72/2/4 73/2/4
f 73/2/4 72/2/4 74/2/4
f 73/1/4 74/1/4 75/1/4
f 75/1/4 74/1/4 76/1/4
f 75/2/4 76/2/4 77/2/4
f 77/2/4 76/2/4 78/2/4
f 77/1/4 78/1/4 79/1/4
f 79/1/4 78/1/4 80/1/4
f 79/2/4 80/2/4 81/2/4
f 81/2/4 80/2/4 82/2/4
f 81/1/4 82/1/4 83/1/4
f 83/1/4 82/1/4 84/1/4
f 83/2/4 84/2/4 85/2/4
f 85/2/4 84/2/4 86/2/4
f 85/1/4 86/1/4 87/1/4
f 87/1/4 86/1/4 88/1/4
f 87/2/4 88/2/4 89/2/4
f 89/2/4 88/2/4 90/2/4
f 89/1/4 90/1/4 91/1/4
f 91/1/4 90/1/4 92/1/4
f 91/2/4 92/2/4 93/2/4
f 93/2/4 92/2/4 94/2/4
f 93/1/4 94/1/4 95/1/4
f 95/1/4 94/1/4 96/1/4
f 95/2/4 96/2/4 97/2/4
f 97/2/4 96/2/4 98/2/4
f 97/1/4 98/1/4 99/1/4
f 99/1/4 98/1/4 100/1/4
f 99/2/4 100/2/4 101/2/4
f 101/2/4 100/2/4 102/2/4
f 101/1/4 102/1/4 103/1/4
f 103/1/4 102/1/4 104/1/4
f 103/2/4 104/2/4 105/2/4
f 105/2/4 104/2/4 106/2/4
f 105/1/4 106/1/4 107/1/4
f 107/1/4 106/1/4 108/1/4
f 131/2/5 110/2/5 109/2/5
f 132/1/5 111/1/5 110/1/5
f 132/2/5 110/2/5 131/2/5
f 133/2/5 112/2/5 111/2/5
f 133/1/5 111/1/5 132/1/5
f 134/1/5 113/1/5 112/1/5
f 134/2/5 112/2/5 133/2/5
f 135/2/5 114/2/5 113/2/5
f 135/1/5 113/1/5 134/1/5
f 136/1/5 115/1/5 114/1/5
f 136/2/5 114/2/5 135/2/5
f 137/2/5 116/2/5 115/2/5
f 137/1/5 115/1/5 136/1/5
f 138/1/5 117/1/5 116/1/5
f 138/2/5 116/2/5 137/2/5
f 139/2/5 118/2/5 117/2/5
f 139/1/5 117/1/5 138/1/5
f 140/1/5 119/1/5 118/1/5
f 140/2/5 118/2/5 139/2/5
f 141/2/5 120/2/5 119/2/5
f 141/1/5 119/1/5 140/1/5
f 142/1/5 121/1/5 120/1/5
f 142/2/5 120/2/5 141/2/5
f 143/2/5 122/2/5 121/2/5
f 143/1/5 121/1/5 142/1/5
f 144/1/5 123/1/5 122/1/5
f 144/2/5 122/2/5 143/2/5
f 145/2/5 124/2/5 123/2/5
f 145/1/5 123/1/5 144/1/5
f 146/1/5 125/1/5 124/1/5
f 146/2/5 124/2/5 145/2/5
f 147/2/5 126/2/5 125/2/5
f 147/1/5 125/1/5 146/1/5
f 148/1/5 127/1/5 126/1/5
f 148/2/5 126/2/5 147/2/5
f 149/2/5 128/2/5 127/2/5
f 149/1/5 127/1/5 148/1/5
f 150/1/5 129/1/5 128/1/5
f 150/2/5 128/2/5 149/2/5
f 151/2/5 130/2/5 129/2/5
f 151/1/5 129/1/5 150/1/5
f 152/2/5 130/2/5 151/2/5
f 153/1/5 132/1/5 131/1/5
f 154/2/5 133/2/5 132/2/5
f 154/1/5 132/1/5 153/1/5
f 155/1/5 134/1/5 133/1/5
f 155/2/5 133/2/5 154/2/5
f 156/2/5 135/2/5 134/2/5
f 156/1/5 134/1/5 155/1/5
f 157/1/5 136/1/5 135/1/5
f 157/2/5 135/2/5 156/2/5
f 158/2/5 137/2/5 136/2/5
f 158/1/5 136/1/5 157/1/5
f 159/1/5 138/1/5 137/1/5
f 159/2/5 137/2/5 158/2/5
f 160/2/5 139/2/5 138/2/5
f 160/1/5 138/1/5 159/1/5
f 161/1/5 140/1/5 139/1/5
f 161/2/5 139/2/5 160/2/5
f 162/2/5 141/2/5 140/2/5
f 162/1/5 140/1/5 161/1/5
f 163/1/5 142/1/5 141/1/5
f 163/2/5 141/2/5 162/2/5
f 164/2/5 143/2/5 142/2/5
f 164/1/5 142/1/5 163/1/5
f 165/1/5 144/1/5 143/1/5
f 165/2/5 143/2/5 164/2/5
f 166/2/5 145/2/5 144/2/5
f 166/1/5 144/1/5 165/1/5
f 167/1/5 146/1/5 145/1/5
f 167/2/5 145/2/5 166/2/5
f 168/2/5 147/2/5 146/2/5
f 168/1/5 146/1/5 167/1/5
f 169/1/5 148/1/5 147/1/5
f 169/2/5 147/2/5 168/2/5
f 170/2/5 149/2/5 148/2/5
f 170/1/5 148/1/5 169/1/5
f 171/1/5 150/1/5 149/1/5
f 171/2/5 149/2/5 170/2/5
f 172/2/5 151/2/5 150/2/5
f 172/1/5 150/1/5 171/1/5
f 173/1/5 152/1/5 151/1/5
f 173/2/5 151/2/5 172/2/5
f 174/1/5 152/1/5 173/1/5
f 175/2/5 154/2/5 153/2/5
f 176/1/5 155/1/5 154/1/5
f 176/2/5 154/2/5 175/2/5
f 177/2/5 156/2/5 155/2/5
f 177/1/5 155/1/5 176/1/5
f 178/1/5 157/1/5 156/1/5
f 178/2/5 156/2/5 177/2/5
f 179/2/5 158/2/5 157/2/5
f 179/1/5 157/1/5 178/1/5
f 180/1/5 159/1/5 158/1/5
f 180/2/5 158/2/5 179/2/5
f 181/2/5 160/2/5 159/2/5
f 181/1/5 159/1/5 180/1/5
f 182/1/5 161/1/5 160/1/5
f 182/2/5 160/2/5 181/2/5
f 183/2/5 162/2/5 161/2/5
f 183/1/5 161/1/5 182/1/5
f 184/1/5 163/1/5 162/1/5
f 184/2/5 162/2/5 183/2/5
f 185/2/5 164/2/5 163/2/5
f 185/1/5 163/1/5 184/1/5
f 186/1/5 165/1/5 164/1/5
f 186/2/5 164/2/5 185/2/5
f 187/2/5 166/2/5 165/2/5
f 187/1/5 165/1/5 186/1/5
f 188/1/5 167/1/5 166/1/5
f 188/2/5 166/2/5 187/2/5
f 189/2/5 168/2/5 167/2/5
f 189/1/5 167/1/5 188/1/5
f 190/1/5 169/1/5 168/1/5
f 190/2/5 168/2/5 189/2/5
f 191/2/5 170/2/5 169/2/5
f 191/1/5 169/1/5 190/1/5
f 192/1/5 171/1/5 170/1/5
f 192/2/5 170/2/5 191/2/5
f 193/2/5 172/2/5 171/2/5
f 193/1/5 171/1/5 192/1/5
f 194/1/5 173/1/5 172/1/5
f 194/2/5 172/2/5 193/2/5
f 195/2/5 174/2/5 173/2/5
f 195/1/5 173/1/5 194/1/5
f 196/2/5 174/2/5 195/2/5
f 197/1/5 176/1/5 175/1/5
f 198/2/5 177/2/5 176/2/5
f 198/1/5 176/1/5 197/1/5
f 199/1/5 178/1/5 177/1/5
f 199/2/5 177/2/5 198/2/5
f 200/2/5 179/2/5 178/2/5
f 200/1/5 178/1/5 199/1/5
f 201/1/5 180/1/5 179/1/5
f 201/2/5 179/2/5 200/2/5
f 202/2/5 181/2/5 180/2/5
f 202/1/5 180/1/5 201/1/5
f 203/1/5 182/1/5 181/1/5
f 203/2/5 181/2/5 202/2/5
f 204/2/5 183/2/5 182/2/5
f 204/1/5 182/1/5 203/1/5
f 205/1/5 184/1/5 183/1/5
f 205/2/5 183/2/5 204/2/5
f 206/2/5 185/2/5 184/2/5
f 206/1/5 184/1/5 205/1/5
f 207/1/5 186/1/5 185/1/5
f 207/2/5 185/2/5 206/2/5
f 208/2/5 187/2/5 186/2/5
f 208/1/5 186/1/5 207/1/5
f 209/1/5 188/1/5 187/1/5
f 209/2/5 187/2/5 208/2/5
f 210/2/5 189/2/5 188/2/5
f 210/1/5 188/1/5 209/1/5
f 211/1/5 190/1/5 189/1/5
f 211/2/5 189/2/5 210/2/5
f 212/2/5 191/2/5 190/2/5
f 212/1/5 190/1/5 211/1/5
f 213/1/5 192/1/5 191/1/5
f 213/2/5 191/2/5 212/2/5
f 214/2/5 193/2/5 192/2/5
f 214/1/5 192/1/5 213/1/5
f 215/1/5 194/1/5 193/1/5
f 215/2/5 193/2/5 214/2/5
f 216/2/5 195/2/5 194/2/5
f 216/1/5 194/1/5 215/1/5
f 217/1/5 196/1/5 195/1/5
f 217/2/5 195/2/5 216/2/5
f 218/1/5 196/1/5 217/1/5
f 219/2/6 220/2/6 241/2/6
f 220/1/6 221/1/6 242/1/6
f 241/2/6 220/2/6 242/2/6
f 221/2/6 222/2/6 243/2/6
f 242/1/6 221/1/6 243/1/6
f 222/1/6 223/1/6 244/1/6
f 243/2/6 222/2/6 244/2/6
f 223/2/6 224/2/6 245/2/6
f 244/1/6 223/1/6 245/1/6
f 224/1/6 225/1/6 246/1/6
f 245/2/6 224/2/6 246/2/6
f 225/2/6 226/2/6 247/2/6
f 246/1/6 225/1/6 247/1/6
f 226/1/6 227/1/6 248/1/6
f 247/2/6 226/2/6 248/2/6
f 227/2/6 228/2/6 249/2/6
f 248/1/6 227/1/6 249/1/6
f 228/1/6 229/1/6 250/1/6
f 249/2/6 228/2/6 250/2/6
f 229/2/6 230/2/6 251/2/6
f 250/1/6 229/1/6 251/1/6
f 230/1/6 231/1/6 252/1/6
f 251/2/6 230/2/6 252/2/6
f 231/2/6 232/2/6 253/2/6
f 252/1/6 231/1/6 253/1/6
f 232/1/6 233/1/6 254/1/6
f 253/2/6 232/2/6 254/2/6
f 233/2/6 234/2/6 255/2/6
f 254/1/6 233/1/6 255/1/6
f 234/1/6 235/1/6 256/1/6
f 255/2/6 234/2/6 256/2/6
f 235/2/6 236/2/6 257/2/6
f 256/1/6 235/1/6 257/1/6
f 236/1/6 237/1/6 258/1/6
f 257/2/6 236/2/6 258/2/6
f 237/2/6 238/2/6 259/2/6
f 258/1/6 237/1/6 259/1/6
f 238/1/6 239/1/6 260/1/6
f 259/2/6 238/2/6 260/2/6
f 239/2/6 240/2/6 261/2/6
f 260/1/6 239/1/6 261/1/6
f 261/2/6 240/2/6 262/2/6
f 241/1/6 242/1/6 263/1/6
f 242/2/6 243/2/6 264/2/6
f 263/1/6 242/1/6 264/1/6
f 243/1/6 244/1/6 265/1/6
f 264/2/6 243/2/6 265/2/6
f 244/2/6 245/2/6 266/2/6
f 265/1/6 244/1/6 266/1/6
f 245/1/6 246/1/6 267/1/6
f 266/2/6 245/2/6 267/2/6
f 246/2/6 247/2/6 268/2/6
f 267/1/6 246/1/6 268/1/6
f 247/1/6 248/1/6 269/1/6
f 268/2/6 247/2/6 269/2/6
f 248/2/6 249/2/6 270/2/6
f 269/1/6 248/1/6 270/1/6
f 249/1/6 250/1/6 271/1/6
f 270/2/6 249/2/6 271/2/6
f 250/2/6 251/2/6 272/2/6
f 271/1/6 250/1/6 272/1/6
f 251/1/6 252/1/6 273/1/6
f 272/2/6 251/2/6 273/2/6
f 252/2/6 253/2/6 274/2/6
f 273/1/6 252/1/6 274/1/6
f 253/1/6 254/1/6 275/1/6
f 274/2/6 253/2/6 275/2/6
f 254/2/6 255/2/6 276/2/6
f 275/1/6 254/1/6 276/1/6
f 255/1/6 256/1/6 277/1/6
f 276/2/6 255/2/6 277/2/6
f 256/2/6 257/2/6 278/2/6
f 277/1/6 256/1/6 278/1/6
f 257/1/6 258/1/6 279/1/6
f 278/2/6 257/2/6 279/2/6
f 258/2/6 259/2/6 280/2/6
f 279/1/6 258/1/6 280/1/6
f 259/1/6 260/1/6 281/1/6
f 280/2/6 259/2/6 281/2/6
f 260/2/6 261/2/6 282/2/6
f 281/1/6 260/1/6 282/1/6
f 261/1/6 262/1/6 283/1/6
f 282/2/6 261/2/6 283/2/6
f 283/1/6 262/1/6 284/1/6
f 263/2/6 264/2/6 285/2/6
f 264/1/6 265/1/6 286/1/6
f 285/2/6 264/2/6 286/2/6
f 265/2/6 266/2/6 287/2/6
f 286/1/6 265/1/6 287/1/6
f 266/1/6 267/1/6 288/1/6
f 287/2/6 266/2/6 288/2/6
f 267/2/6 268/2/6 289/2/6
f 288/1/6 267/1/6 289/1/6
f 268/1/6 269/1/6 290/1/6
f 289/2/6 268/2/6 290/2/6
f 269/2/6 270/2/6 291/2/6
f 290/1/6 269/1/6 291/1/6
f 270/1/6 271/1/6 292/1/6
f 291/2/6 270/2/6 292/2/6
f 271/2/6 272/2/6 293/2/6
f 292/1/6 271/1/6 293/1/6
f 272/1/6 273/1/6 294/1/6
f 293/2/6 272/2/6 294/2/6
f 273/2/6 274/2/6 295/2/6
f 294/1/6 273/1/6 295/1/6
f 274/1/6 275/1/6 296/1/6
f 295/2/6 274/2/6 296/2/6
f 275/2/6 276/2/6 297/2/6
f 296/1/6 275/1/6 297/1/6
f 276/1/6 277/1/6 298/1/6
f 297/2/6 276/2/6 298/2/6
f 277/2/6 278/2/6 299/2/6
f 298/1/6 277/1/6 299/1/6
f 278/1/6 279/1/6 300/1/6
f 299/2/6 278/2/6 300/2/6
f 279/2/6 280/2/6 301/2/6
f 300/1/6 279/1/6 301/1/6
f 280/1/6 281/1/6 302/1/6
f 301/2/6 280/2/6 302/2/6
f 281/2/6 282/2/6 303/2/6
f 302/1/6 281/1/6 303/1/6
f 282/1/6 283/1/6 304/1/6
f 303/2/6 282/2/6 304/2/6
f 283/2/6 284/2/6 305/2/6
f 304/1/6 283/1/6 305/1/6
f 305/2/6 284/2/6 306/2/6
f 285/1/6 286/1/6 307/1/6
f 286/2/6 287/2/6 308/2/6
f 307/1/6 286/1/6 308/1/6
f 287/1/6 288/1/6 309/1/6
f 308/2/6 287/2/6 309/2/6
f 288/2/6 289/2/6 310/2/6
f 309/1/6 288/1/6 310/1/6
f 289/1/6 290/1/6 311/1/6
f 310/2/6 289/2/6 311/2/6
f 290/2/6 291/2/6 312/2/6
f 311/1/6 290/1/6 312/1/6
f 291/1/6 292/1/6 313/1/6
f 312/2/6 291/2/6 313/2/6
f 292/2/6 293/2/6 314/2/6
f 313/1/6 292/1/6 314/1/6
f 293/1/6 294/1/6 315/1/6
f 314/2/6 293/2/6 315/2/6
f 294/2/6 295/2/6 316/2/6
f 315/1/6 294/1/6 316/1/6
f 295/1/6 296/1/6 317/1/6
f 316/2/6 295/2/6 317/2/6
f 296/2/6 297/2/6 318/2/6
f 317/1/6 296/1/6 318/1/6
f 297/1/6 298/1/6 319/1/6
f 318/2/6 297/2/6 319/2/6
f 298/2/6 299/2/6 320/2/6
f 319/1/6 298/1/6 320/1/6
f 299/1/6 300/1/6 321/1/6
f 320/2/6 299/2/6 321/2/6
f 300/2/6 301/2/6 322/2/6
f 321/1/6 300/1/6 322/1/6
f 301/1/6 302/1/6 323/1/6
f 322/2/6 301/2/6 323/2/6
f 302/2/6 303/2/6 324/2/6
f 323/1/6 302/1/6 324/1/6
f 303/1/6 304/1/6 325/1/6
f 324/2/6 303/2/6 325/2/6
f 304/2/6 305/2/6 326/2/6
f 325/1/6 304/1/6 326/1/6
f 305/1/6 306/1/6 327/1/6
f 326/2/6 305/2/6 327/2/6
f 327/1/6 306/1/6 328/1/6
