# MagicaVoxel @ Ephtracy

# material
mtllib start.mtl
usemtl palette

# normals
vn -1 0 0
vn 1 0 0
vn 0 0 1
vn 0 0 -1
vn 0 -1 0
vn 0 1 0

# texcoords
vt 0.373047 0.5
vt 0.958984 0.5
vt 0.994141 0.5

# verts
v -10 0 0.5
v -10 0 -0.5
v -10 19 0.5
v -10 19 -0.5
v -10 20 0.5
v -10 20 -0.5
v 9 0 0.5
v 9 0 -0.5
v 9 15 0.5
v 9 15 -0.5
v -9 0 0.5
v -9 0 -0.5
v -9 15 0.5
v -9 15 -0.5
v 10 0 0.5
v 10 0 -0.5
v 10 19 0.5
v 10 19 -0.5
v 10 20 0.5
v 10 20 -0.5
v -10 0 0.5
v -10 19 0.5
v -10 20 0.5
v -9 0 0.5
v -9 15 0.5
v -9 16 0.5
v -9 18 0.5
v -9 19 0.5
v -8 17 0.5
v -8 18 0.5
v -8 19 0.5
v -8 20 0.5
v -7 15 0.5
v -7 16 0.5
v -7 17 0.5
v -6 16 0.5
v -6 18 0.5
v -6 19 0.5
v -6 20 0.5
v -5 19 0.5
v -5 20 0.5
v -4 15 0.5
v -4 19 0.5
v -3 15 0.5
v -3 19 0.5
v -2 15 0.5
v -2 19 0.5
v -2 20 0.5
v -1 15 0.5
v -1 17 0.5
v -1 18 0.5
v -1 19 0.5
v -1 20 0.5
v 0 15 0.5
v 0 17 0.5
v 0 18 0.5
v 0 19 0.5
v 0 20 0.5
v 1 15 0.5
v 1 19 0.5
v 2 15 0.5
v 2 20 0.5
v 3 15 0.5
v 3 17 0.5
v 3 18 0.5
v 3 19 0.5
v 4 15 0.5
v 4 17 0.5
v 4 18 0.5
v 4 19 0.5
v 4 20 0.5
v 5 15 0.5
v 5 17 0.5
v 5 18 0.5
v 5 19 0.5
v 6 19 0.5
v 6 20 0.5
v 7 15 0.5
v 7 19 0.5
v 8 15 0.5
v 8 19 0.5
v 9 0 0.5
v 9 15 0.5
v 9 19 0.5
v 9 20 0.5
v 10 0 0.5
v 10 19 0.5
v 10 20 0.5
v -10 0 -0.5
v -10 19 -0.5
v -10 20 -0.5
v -9 0 -0.5
v -9 15 -0.5
v -9 16 -0.5
v -9 18 -0.5
v -9 19 -0.5
v -8 17 -0.5
v -8 18 -0.5
v -8 19 -0.5
v -8 20 -0.5
v -7 15 -0.5
v -7 16 -0.5
v -7 17 -0.5
v -6 16 -0.5
v -6 18 -0.5
v -6 19 -0.5
v -6 20 -0.5
v -5 19 -0.5
v -5 20 -0.5
v -4 15 -0.5
v -4 19 -0.5
v -3 15 -0.5
v -3 19 -0.5
v -2 15 -0.5
v -2 19 -0.5
v -2 20 -0.5
v -1 15 -0.5
v -1 17 -0.5
v -1 18 -0.5
v -1 19 -0.5
v -1 20 -0.5
v 0 15 -0.5
v 0 17 -0.5
v 0 18 -0.5
v 0 19 -0.5
v 0 20 -0.5
v 1 15 -0.5
v 1 19 -0.5
v 2 15 -0.5
v 2 20 -0.5
v 3 15 -0.5
v 3 17 -0.5
v 3 18 -0.5
v 3 19 -0.5
v 4 15 -0.5
v 4 17 -0.5
v 4 18 -0.5
v 4 19 -0.5
v 4 20 -0.5
v 5 15 -0.5
v 5 17 -0.5
v 5 18 -0.5
v 5 19 -0.5
v 6 19 -0.5
v 6 20 -0.5
v 7 15 -0.5
v 7 19 -0.5
v 8 15 -0.5
v 8 19 -0.5
v 9 0 -0.5
v 9 15 -0.5
v 9 19 -0.5
v 9 20 -0.5
v 10 0 -0.5
v 10 19 -0.5
v 10 20 -0.5
v -10 0 0.5
v -9 0 0.5
v 9 0 0.5
v 10 0 0.5
v -10 0 -0.5
v -9 0 -0.5
v 9 0 -0.5
v 10 0 -0.5
v -9 15 0.5
v -7 15 0.5
v -4 15 0.5
v -3 15 0.5
v -2 15 0.5
v -1 15 0.5
v 0 15 0.5
v 1 15 0.5
v 2 15 0.5
v 3 15 0.5
v 4 15 0.5
v 5 15 0.5
v 7 15 0.5
v 8 15 0.5
v 9 15 0.5
v -9 15 -0.5
v -7 15 -0.5
v -4 15 -0.5
v -3 15 -0.5
v -2 15 -0.5
v -1 15 -0.5
v 0 15 -0.5
v 1 15 -0.5
v 2 15 -0.5
v 3 15 -0.5
v 4 15 -0.5
v 5 15 -0.5
v 7 15 -0.5
v 8 15 -0.5
v 9 15 -0.5
v -10 20 0.5
v -8 20 0.5
v -6 20 0.5
v -5 20 0.5
v -2 20 0.5
v -1 20 0.5
v 0 20 0.5
v 2 20 0.5
v 4 20 0.5
v 6 20 0.5
v 9 20 0.5
v 10 20 0.5
v -10 20 -0.5
v -8 20 -0.5
v -6 20 -0.5
v -5 20 -0.5
v -2 20 -0.5
v -1 20 -0.5
v 0 20 -0.5
v 2 20 -0.5
v 4 20 -0.5
v 6 20 -0.5
v 9 20 -0.5
v 10 20 -0.5

# faces
f 3/1/1 2/1/1 1/1/1
f 4/1/1 2/1/1 3/1/1
f 5/3/1 4/3/1 3/3/1
f 6/3/1 4/3/1 5/3/1
f 9/1/1 8/1/1 7/1/1
f 10/1/1 8/1/1 9/1/1
f 11/1/2 12/1/2 13/1/2
f 13/1/2 12/1/2 14/1/2
f 15/1/2 16/1/2 17/1/2
f 17/1/2 16/1/2 18/1/2
f 17/3/2 18/3/2 19/3/2
f 19/3/2 18/3/2 20/3/2
f 24/1/3 22/1/3 21/1/3
f 25/1/3 22/1/3 24/1/3
f 26/1/3 22/1/3 25/1/3
f 27/1/3 22/1/3 26/1/3
f 28/3/3 23/3/3 22/3/3
f 28/1/3 22/1/3 27/1/3
f 29/3/3 27/3/3 26/3/3
f 30/2/3 28/2/3 27/2/3
f 30/3/3 27/3/3 29/3/3
f 31/3/3 23/3/3 28/3/3
f 31/2/3 28/2/3 30/2/3
f 32/3/3 23/3/3 31/3/3
f 33/2/3 26/2/3 25/2/3
f 34/3/3 29/3/3 26/3/3
f 34/2/3 26/2/3 33/2/3
f 35/2/3 30/2/3 29/2/3
f 35/3/3 29/3/3 34/3/3
f 36/3/3 34/3/3 33/3/3
f 36/2/3 35/2/3 34/2/3
f 37/2/3 30/2/3 35/2/3
f 37/2/3 35/2/3 36/2/3
f 37/3/3 31/3/3 30/3/3
f 38/2/3 32/2/3 31/2/3
f 38/3/3 31/3/3 37/3/3
f 39/2/3 32/2/3 38/2/3
f 40/3/3 37/3/3 36/3/3
f 40/3/3 38/3/3 37/3/3
f 40/3/3 39/3/3 38/3/3
f 41/3/3 39/3/3 40/3/3
f 42/3/3 36/3/3 33/3/3
f 42/3/3 40/3/3 36/3/3
f 43/2/3 41/2/3 40/2/3
f 43/3/3 40/3/3 42/3/3
f 44/2/3 43/2/3 42/2/3
f 45/2/3 41/2/3 43/2/3
f 45/2/3 43/2/3 44/2/3
f 46/3/3 45/3/3 44/3/3
f 47/2/3 41/2/3 45/2/3
f 47/3/3 45/3/3 46/3/3
f 48/2/3 41/2/3 47/2/3
f 49/2/3 47/2/3 46/2/3
f 50/2/3 47/2/3 49/2/3
f 51/2/3 47/2/3 50/2/3
f 52/3/3 48/3/3 47/3/3
f 52/2/3 47/2/3 51/2/3
f 53/3/3 48/3/3 52/3/3
f 54/3/3 50/3/3 49/3/3
f 55/2/3 51/2/3 50/2/3
f 55/3/3 50/3/3 54/3/3
f 56/3/3 52/3/3 51/3/3
f 56/2/3 51/2/3 55/2/3
f 57/2/3 53/2/3 52/2/3
f 57/3/3 52/3/3 56/3/3
f 58/2/3 53/2/3 57/2/3
f 59/2/3 55/2/3 54/2/3
f 59/2/3 56/2/3 55/2/3
f 59/2/3 57/2/3 56/2/3
f 60/3/3 58/3/3 57/3/3
f 60/2/3 57/2/3 59/2/3
f 61/3/3 60/3/3 59/3/3
f 62/3/3 58/3/3 60/3/3
f 62/3/3 60/3/3 61/3/3
f 63/2/3 62/2/3 61/2/3
f 64/2/3 62/2/3 63/2/3
f 65/2/3 62/2/3 64/2/3
f 66/2/3 62/2/3 65/2/3
f 67/3/3 64/3/3 63/3/3
f 68/2/3 65/2/3 64/2/3
f 68/3/3 64/3/3 67/3/3
f 69/3/3 66/3/3 65/3/3
f 69/2/3 65/2/3 68/2/3
f 70/2/3 62/2/3 66/2/3
f 70/3/3 66/3/3 69/3/3
f 71/2/3 62/2/3 70/2/3
f 72/2/3 68/2/3 67/2/3
f 73/3/3 69/3/3 68/3/3
f 73/2/3 68/2/3 72/2/3
f 74/2/3 70/2/3 69/2/3
f 74/3/3 69/3/3 73/3/3
f 75/3/3 71/3/3 70/3/3
f 75/2/3 70/2/3 74/2/3
f 76/3/3 73/3/3 72/3/3
f 76/3/3 71/3/3 75/3/3
f 76/3/3 75/3/3 74/3/3
f 76/3/3 74/3/3 73/3/3
f 77/3/3 71/3/3 76/3/3
f 78/3/3 76/3/3 72/3/3
f 79/2/3 77/2/3 76/2/3
f 79/3/3 76/3/3 78/3/3
f 80/2/3 79/2/3 78/2/3
f 81/2/3 77/2/3 79/2/3
f 81/2/3 79/2/3 80/2/3
f 83/3/3 81/3/3 80/3/3
f 84/2/3 77/2/3 81/2/3
f 84/3/3 81/3/3 83/3/3
f 85/2/3 77/2/3 84/2/3
f 86/1/3 83/1/3 82/1/3
f 86/1/3 84/1/3 83/1/3
f 87/3/3 85/3/3 84/3/3
f 87/1/3 84/1/3 86/1/3
f 88/3/3 85/3/3 87/3/3
f 89/1/4 90/1/4 92/1/4
f 92/1/4 90/1/4 93/1/4
f 93/1/4 90/1/4 94/1/4
f 94/1/4 90/1/4 95/1/4
f 90/3/4 91/3/4 96/3/4
f 95/1/4 90/1/4 96/1/4
f 94/3/4 95/3/4 97/3/4
f 95/2/4 96/2/4 98/2/4
f 97/3/4 95/3/4 98/3/4
f 96/3/4 91/3/4 99/3/4
f 98/2/4 96/2/4 99/2/4
f 99/3/4 91/3/4 100/3/4
f 93/2/4 94/2/4 101/2/4
f 94/3/4 97/3/4 102/3/4
f 101/2/4 94/2/4 102/2/4
f 97/2/4 98/2/4 103/2/4
f 102/3/4 97/3/4 103/3/4
f 101/3/4 102/3/4 104/3/4
f 102/2/4 103/2/4 104/2/4
f 103/2/4 98/2/4 105/2/4
f 104/2/4 103/2/4 105/2/4
f 98/3/4 99/3/4 105/3/4
f 99/2/4 100/2/4 106/2/4
f 105/3/4 99/3/4 106/3/4
f 106/2/4 100/2/4 107/2/4
f 104/3/4 105/3/4 108/3/4
f 105/3/4 106/3/4 108/3/4
f 106/3/4 107/3/4 108/3/4
f 108/3/4 107/3/4 109/3/4
f 101/3/4 104/3/4 110/3/4
f 104/3/4 108/3/4 110/3/4
f 108/2/4 109/2/4 111/2/4
f 110/3/4 108/3/4 111/3/4
f 110/2/4 111/2/4 112/2/4
f 111/2/4 109/2/4 113/2/4
f 112/2/4 111/2/4 113/2/4
f 112/3/4 113/3/4 114/3/4
f 113/2/4 109/2/4 115/2/4
f 114/3/4 113/3/4 115/3/4
f 115/2/4 109/2/4 116/2/4
f 114/2/4 115/2/4 117/2/4
f 117/2/4 115/2/4 118/2/4
f 118/2/4 115/2/4 119/2/4
f 115/3/4 116/3/4 120/3/4
f 119/2/4 115/2/4 120/2/4
f 120/3/4 116/3/4 121/3/4
f 117/3/4 118/3/4 122/3/4
f 118/2/4 119/2/4 123/2/4
f 122/3/4 118/3/4 123/3/4
f 119/3/4 120/3/4 124/3/4
f 123/2/4 119/2/4 124/2/4
f 120/2/4 121/2/4 125/2/4
f 124/3/4 120/3/4 125/3/4
f 125/2/4 121/2/4 126/2/4
f 122/2/4 123/2/4 127/2/4
f 123/2/4 124/2/4 127/2/4
f 124/2/4 125/2/4 127/2/4
f 125/3/4 126/3/4 128/3/4
f 127/2/4 125/2/4 128/2/4
f 127/3/4 128/3/4 129/3/4
f 128/3/4 126/3/4 130/3/4
f 129/3/4 128/3/4 130/3/4
f 129/2/4 130/2/4 131/2/4
f 131/2/4 130/2/4 132/2/4
f 132/2/4 130/2/4 133/2/4
f 133/2/4 130/2/4 134/2/4
f 131/3/4 132/3/4 135/3/4
f 132/2/4 133/2/4 136/2/4
f 135/3/4 132/3/4 136/3/4
f 133/3/4 134/3/4 137/3/4
f 136/2/4 133/2/4 137/2/4
f 134/2/4 130/2/4 138/2/4
f 137/3/4 134/3/4 138/3/4
f 138/2/4 130/2/4 139/2/4
f 135/2/4 136/2/4 140/2/4
f 136/3/4 137/3/4 141/3/4
f 140/2/4 136/2/4 141/2/4
f 137/2/4 138/2/4 142/2/4
f 141/3/4 137/3/4 142/3/4
f 138/3/4 139/3/4 143/3/4
f 142/2/4 138/2/4 143/2/4
f 140/3/4 141/3/4 144/3/4
f 143/3/4 139/3/4 144/3/4
f 142/3/4 143/3/4 144/3/4
f 141/3/4 142/3/4 144/3/4
f 144/3/4 139/3/4 145/3/4
f 140/3/4 144/3/4 146/3/4
f 144/2/4 145/2/4 147/2/4
f 146/3/4 144/3/4 147/3/4
f 146/2/4 147/2/4 148/2/4
f 147/2/4 145/2/4 149/2/4
f 148/2/4 147/2/4 149/2/4
f 148/3/4 149/3/4 151/3/4
f 149/2/4 145/2/4 152/2/4
f 151/3/4 149/3/4 152/3/4
f 152/2/4 145/2/4 153/2/4
f 150/1/4 151/1/4 154/1/4
f 151/1/4 152/1/4 154/1/4
f 152/3/4 153/3/4 155/3/4
f 154/1/4 152/1/4 155/1/4
f 155/3/4 153/3/4 156/3/4
f 161/1/5 158/1/5 157/1/5
f 162/1/5 158/1/5 161/1/5
f 163/1/5 160/1/5 159/1/5
f 164/1/5 160/1/5 163/1/5
f 180/2/5 166/2/5 165/2/5
f 181/3/5 167/3/5 166/3/5
f 181/2/5 166/2/5 180/2/5
f 182/2/5 168/2/5 167/2/5
f 182/3/5 167/3/5 181/3/5
f 183/3/5 169/3/5 168/3/5
f 183/2/5 168/2/5 182/2/5
f 184/2/5 170/2/5 169/2/5
f 184/3/5 169/3/5 183/3/5
f 185/3/5 171/3/5 170/3/5
f 185/2/5 170/2/5 184/2/5
f 186/2/5 172/2/5 171/2/5
f 186/3/5 171/3/5 185/3/5
f 187/3/5 173/3/5 172/3/5
f 187/2/5 172/2/5 186/2/5
f 188/2/5 174/2/5 173/2/5
f 188/3/5 173/3/5 187/3/5
f 189/3/5 175/3/5 174/3/5
f 189/2/5 174/2/5 188/2/5
f 190/2/5 176/2/5 175/2/5
f 190/3/5 175/3/5 189/3/5
f 191/3/5 177/3/5 176/3/5
f 191/2/5 176/2/5 190/2/5
f 192/2/5 178/2/5 177/2/5
f 192/3/5 177/3/5 191/3/5
f 193/3/5 179/3/5 178/3/5
f 193/2/5 178/2/5 192/2/5
f 194/3/5 179/3/5 193/3/5
f 195/3/6 196/3/6 207/3/6
f 196/2/6 197/2/6 208/2/6
f 207/3/6 196/3/6 208/3/6
f 197/3/6 198/3/6 209/3/6
f 208/2/6 197/2/6 209/2/6
f 198/2/6 199/2/6 210/2/6
f 209/3/6 198/3/6 210/3/6
f 199/3/6 200/3/6 211/3/6
f 210/2/6 199/2/6 211/2/6
f 200/2/6 201/2/6 212/2/6
f 211/3/6 200/3/6 212/3/6
f 201/3/6 202/3/6 213/3/6
f 212/2/6 201/2/6 213/2/6
f 202/2/6 203/2/6 214/2/6
f 213/3/6 202/3/6 214/3/6
f 203/3/6 204/3/6 215/3/6
f 214/2/6 203/2/6 215/2/6
f 204/2/6 205/2/6 216/2/6
f 215/3/6 204/3/6 216/3/6
f 205/3/6 206/3/6 217/3/6
f 216/2/6 205/2/6 217/2/6
f 217/3/6 206/3/6 218/3/6
